2014015_C4_04_grf
version=1
nRows=21
nColumns=19
inDegrees=no
endheader
time	ground_force_1_vx	ground_force_1_vy	ground_force_1_vz	ground_force_1_px	ground_force_1_py	ground_force_1_pz	ground_force_1_mx	ground_force_1_my	ground_force_1_mz	ground_force_2_vx	ground_force_2_vy	ground_force_2_vz	ground_force_2_px	ground_force_2_py	ground_force_2_pz	ground_force_2_mx	ground_force_2_my	ground_force_2_mz
      0.95000000	      0.00000000	      0.00000000	      0.00000000	      0.00000000	      0.00000000	      0.00000000	      0.00000000	      0.00000000	      0.00000000	    -49.89342764	    591.82643890	    -11.26827635	      0.74906097	     -0.00200000	     -0.20541853	      0.00000000	      0.15887554	      0.00000000
      0.95100000	      0.00000000	      0.00000000	      0.00000000	      0.00000000	      0.00000000	      0.00000000	      0.00000000	      0.00000000	      0.00000000	    -49.54183474	    591.16622806	    -11.18387897	      0.74933185	     -0.00200000	     -0.20537244	      0.00000000	      0.17184686	      0.00000000
      0.95200000	      0.00000000	      0.00000000	      0.00000000	      0.00000000	      0.00000000	      0.00000000	      0.00000000	      0.00000000	      0.00000000	    -49.19285327	    590.51489830	    -11.10007167	      0.74960298	     -0.00200000	     -0.20532649	      0.00000000	      0.18496348	      0.00000000
      0.95300000	      0.00000000	      0.00000000	      0.00000000	      0.00000000	      0.00000000	      0.00000000	      0.00000000	      0.00000000	      0.00000000	    -48.84720594	    589.87477422	    -11.01705283	      0.74987454	     -0.00200000	     -0.20528070	      0.00000000	      0.19825504	      0.00000000
      0.95400000	      0.00000000	      0.00000000	      0.00000000	      0.00000000	      0.00000000	      0.00000000	      0.00000000	      0.00000000	      0.00000000	    -48.50428179	    589.24382925	    -10.93470678	      0.75014653	     -0.00200000	     -0.20523502	      0.00000000	      0.21168069	      0.00000000
      0.95500000	      0.00000000	      0.00000000	      0.00000000	      0.00000000	      0.00000000	      0.00000000	      0.00000000	      0.00000000	      0.00000000	    -48.16481471	    588.62450719	    -10.85325200	      0.75041913	     -0.00200000	     -0.20518948	      0.00000000	      0.22526674	      0.00000000
      0.95600000	      0.00000000	      0.00000000	      0.00000000	      0.00000000	      0.00000000	      0.00000000	      0.00000000	      0.00000000	      0.00000000	    -47.82815650	    588.01454306	    -10.77254713	      0.75069226	     -0.00200000	     -0.20514404	     -0.00000000	      0.23897376	      0.00000000
      0.95700000	      0.00000000	      0.00000000	      0.00000000	      0.00000000	      0.00000000	      0.00000000	      0.00000000	      0.00000000	      0.00000000	    -47.49504291	    587.41655946	    -10.69282014	      0.75096611	     -0.00200000	     -0.20509871	     -0.00000000	      0.25282064	      0.00000000
      0.95800000	      0.00000000	      0.00000000	      0.00000000	      0.00000000	      0.00000000	      0.00000000	      0.00000000	      0.00000000	      0.00000000	    -47.16479406	    586.82823181	    -10.61390899	      0.75124059	     -0.00200000	     -0.20505349	      0.00000000	      0.26677055	      0.00000000
      0.95900000	      0.00000000	      0.00000000	      0.00000000	      0.00000000	      0.00000000	      0.00000000	      0.00000000	      0.00000000	      0.00000000	    -46.83814012	    586.25215292	    -10.53605787	      0.75151588	     -0.00200000	     -0.20500838	      0.00000000	      0.28083763	      0.00000000
      0.96000000	      0.00000000	      0.00000000	      0.00000000	      0.00000000	      0.00000000	      0.00000000	      0.00000000	      0.00000000	      0.00000000	    -46.51436955	    585.68608761	    -10.45909300	      0.75179188	     -0.00200000	     -0.20496335	      0.00000000	      0.29499033	      0.00000000
      0.96100000	      0.00000000	      0.00000000	      0.00000000	      0.00000000	      0.00000000	      0.00000000	      0.00000000	      0.00000000	      0.00000000	    -46.19419947	    585.13268828	    -10.38329434	      0.75206877	     -0.00200000	     -0.20491843	      0.00000000	      0.30924044	      0.00000000
      0.96200000	      0.00000000	      0.00000000	      0.00000000	      0.00000000	      0.00000000	      0.00000000	      0.00000000	      0.00000000	      0.00000000	    -45.87689415	    584.58960056	    -10.30848585	      0.75234639	     -0.00200000	     -0.20487357	      0.00000000	      0.32356092	      0.00000000
      0.96300000	      0.00000000	      0.00000000	      0.00000000	      0.00000000	      0.00000000	      0.00000000	      0.00000000	      0.00000000	      0.00000000	    -45.56313902	    584.05956626	    -10.23498997	      0.75262493	     -0.00200000	     -0.20482877	      0.00000000	      0.33796114	      0.00000000
      0.96400000	      0.00000000	      0.00000000	      0.00000000	      0.00000000	      0.00000000	      0.00000000	      0.00000000	      0.00000000	      0.00000000	    -45.25219277	    583.54020119	    -10.16259603	      0.75290422	     -0.00200000	     -0.20478402	      0.00000000	      0.35241932	      0.00000000
      0.96500000	      0.00000000	      0.00000000	      0.00000000	      0.00000000	      0.00000000	      0.00000000	      0.00000000	      0.00000000	      0.00000000	    -44.94470730	    583.03424716	    -10.09163540	      0.75318446	     -0.00200000	     -0.20473929	      0.00000000	      0.36694370	      0.00000000
      0.96600000	      0.00000000	      0.00000000	      0.00000000	      0.00000000	      0.00000000	      0.00000000	      0.00000000	      0.00000000	      0.00000000	    -44.63994130	    582.53914118	    -10.02185717	      0.75346546	     -0.00200000	     -0.20469457	      0.00000000	      0.38151651	      0.00000000
      0.96700000	      0.00000000	      0.00000000	      0.00000000	      0.00000000	      0.00000000	      0.00000000	      0.00000000	      0.00000000	      0.00000000	    -44.33851875	    582.05786347	     -9.95359942	      0.75374742	     -0.00200000	     -0.20464985	      0.00000000	      0.39614589	      0.00000000
      0.96800000	      0.00000000	      0.00000000	      0.00000000	      0.00000000	      0.00000000	      0.00000000	      0.00000000	      0.00000000	      0.00000000	    -44.03972998	    581.58773184	     -9.88659002	      0.75403015	     -0.00200000	     -0.20460511	      0.00000000	      0.41081986	      0.00000000
      0.96900000	      0.00000000	      0.00000000	      0.00000000	      0.00000000	      0.00000000	      0.00000000	      0.00000000	      0.00000000	      0.00000000	    -43.74419712	    581.13193512	     -9.82118826	      0.75431388	     -0.00200000	     -0.20456034	      0.00000000	      0.42555216	      0.00000000
      0.97000000	      0.00000000	      0.00000000	      0.00000000	      0.00000000	      0.00000000	      0.00000000	      0.00000000	      0.00000000	      0.00000000	    -43.45123470	    580.68770170	     -9.75710973	      0.75459841	     -0.00200000	     -0.20451552	      0.00000000	      0.44033506	      0.00000000
